<?xml version="1.0" encoding="UTF-8"?>
<svg id="Layer_1" xmlns="http://www.w3.org/2000/svg" version="1.1" viewBox="0 0 1024 565">
  <!-- Generator: Adobe Illustrator 29.5.0, SVG Export Plug-In . SVG Version: 2.1.0 Build 137)  -->
  <defs>
    <style>
      .st0 {
        fill: #fff;
        stroke: #fff;
      }

      .st0, .st1 {
        stroke-miterlimit: 10.43;
        stroke-width: .09px;
      }

      .st1 {
        fill: #010101;
        stroke: #010101;
      }
    </style>
  </defs>
  <path class="st0" d="M0,.5h1024v565H0V.5ZM452.35,114.43c6.67,20.05,13.71,39.98,20.95,59.84,19.47-7.51,41-9.36,61.49-5.45,1.41.43,3.06.54,4.24,1.52,4.03,11.12,7.4,22.49,11.77,33.49-9.56,3.58-19.49,6.08-29.18,9.29-6.91,2.25-11.7,10.05-9.7,17.22,7.42,20.37,14.17,40.99,21.55,61.38-9.76,6.21-22.01,4.6-32.47,1.22-.57,6.87-1.55,13.7-2.29,20.56,6.9,1.99,13.96,4.46,21.24,3.95,9.6-1.5,18.84-4.65,27.99-7.81,4.54-1.53,8.02-5.54,9.04-10.2,1.32-4.9-1.25-9.59-2.65-14.16-6.49-18.28-12.85-36.62-19.09-55,7.6-1.77,14.87-4.71,22.42-6.68,14.6,41.46,29.32,82.87,43.86,124.35,1.22,2.32-1.23,3.98-2.58,5.5-14.01,13.71-31.55,24.05-50.58,28.9,5.02,14.51,9.69,29.16,15.15,43.51-1.23.48-2.45.95-3.7,1.33-27.53,7.18-56.92,6.53-84.3-1.04-35.68-10.12-68.42-31.69-90.27-61.87-16.73-23.34-26.87-51.39-28.93-80.02,3.91-1.83,8.12-2.79,12.2-4.12,12.83-3.6,25.6-7.42,38.31-11.43,6.57,12.2,19.04,21.03,32.69,23.33,11.8,2.34,24.37-.94,34.06-7.93,15.81-11.26,21.63-34.43,12.55-51.66-2.59-4.24-8.22-6.7-13-4.96-46.31,13.77-92.6,27.63-138.95,41.24-1.9,35.9,8.71,72.18,28.46,102.12,21.03,32.17,52.73,56.95,88.57,70.62,27.79,10.58,58.01,15.01,87.64,11.95,7.45-1.16,15.02-1.68,22.33-3.64,10.38-2.04,20.29-5.82,30.19-9.46l.38-.8c-4.55-14.77-10.5-29.08-15.21-43.8,18.95-8.58,35.59-21.88,48.86-37.83,1.55-2.37,1.24-5.56.43-8.15-6.12-16.36-11.7-32.91-17.58-49.35-17.82-48.99-35-98.22-52.94-147.18-13.82-5.12-28.68-6.43-43.31-6.86-8.31.64-16.68.99-24.87,2.67-2.7-6.96-4.9-14.1-7.2-21.2,6.28-1.84,12.84-2.09,19.27-3.14,6.22-1.02,12.54-.77,18.81-.79,22.69.88,45.21,6.16,65.72,15.96,15.27,7.5,29.89,16.73,42.19,28.56-9.5,2.77-19.03,5.44-28.43,8.53-2.8.91-5.52,3.31-5.07,6.54.7,5.68,3.59,10.81,5.33,16.22.62,2.43,2.61,4.05,4.2,5.85,12.01,13.18,21.02,29.29,25.17,46.68,1.59,5.31,1.91,10.87,3.01,16.29,1.55,8.14-1.07,16.73,2.19,24.58,1.69,4.81,3.01,11.31,8.7,12.83,4.2-.4,8.13-2.15,12.18-3.28,7.84-2.23,15.62-4.67,23.4-7.09-1.13,14.74-4.97,29.21-10.91,42.73-6.21,15.56-15.91,29.47-26.89,42.02-11.91,13.54-26.76,24.05-42.26,33.08,2.44,7.03,5.24,13.93,7.63,20.97,20.19-10.22,38.76-23.97,53.62-41.1,20.58-23.17,34.56-52.21,39.55-82.81,2.75-14.32,2.4-28.99,1.79-43.49-2.38.2-4.65.93-6.89,1.72-13.17,3.9-26.23,8.2-39.48,11.83-.18-13.93-2.05-27.87-6.51-41.1-5.53-17.54-15.42-33.4-27.31-47.32,14.66-5.03,29.71-8.87,44.43-13.76-3.37-5.81-8.22-10.54-12.84-15.35-10.68-11.52-23.09-21.36-36.35-29.74-47.32-30.46-108.78-37.41-161.82-18.81ZM359.4,186.97c-12.58,20.55-20.87,43.8-23.88,67.71,7.87-1.86,15.42-4.8,23.27-6.7,6-28.56,19.85-55.5,40.21-76.47,13.8-13.91,30.14-25.36,48.13-33.17-1.81-6.71-4.39-13.19-6.85-19.68-33.11,13.69-61.97,37.82-80.88,68.31ZM386.12,239.75c8.86-2.86,17.84-5.28,26.67-8.23,9.69-22.28,27.59-40.8,48.96-52.2-2.3-6.67-4.76-13.29-6.9-20.02-32.6,15.76-59.48,45.05-68.73,80.45ZM650.55,195.21c12.51,19.71,21.39,41.77,25.33,64.8,7.01-1.71,13.88-4.05,20.83-6.02-1.16-9.38-4-18.46-6.95-27.4-4.74-13.14-10.38-26.19-18.69-37.49-6.78,2.25-13.7,3.99-20.52,6.11ZM382,289.77c1.99,22.73,11.11,44.68,25.02,62.72,22.86,30.68,59.2,50.14,96.98,54.55,12.94,1.54,26.05.91,38.94-.86-2.29-6.98-4.91-13.84-7.12-20.83-1.33-1.14-3.21,0-4.76-.12-16.58,2.19-33.51-.38-49.32-5.51-31.51-10.55-58.77-34.61-71.14-65.67-3.76-9.79-6.43-20-7.64-30.42-7.06,1.78-13.89,4.38-20.96,6.14ZM499.3,342.74c-.57,7.58-1.53,15.14-1.5,22.76,13.67-4.55,27.58-8.33,41.3-12.75,15.3-4.47,30.45-9.42,45.75-13.88-2.15-6.74-4.7-13.36-7-20.05-26.25,7.77-52.36,15.96-78.55,23.92Z"/>
  <path class="st1" d="M452.35,114.43c53.04-18.6,114.5-11.65,161.82,18.81,13.26,8.38,25.67,18.22,36.35,29.74,4.62,4.81,9.47,9.54,12.84,15.35-14.72,4.89-29.77,8.73-44.43,13.76,11.89,13.92,21.78,29.78,27.31,47.32,4.46,13.23,6.33,27.17,6.51,41.1,13.25-3.63,26.31-7.93,39.48-11.83,2.24-.79,4.51-1.52,6.89-1.72.61,14.5.96,29.17-1.79,43.49-4.99,30.6-18.97,59.64-39.55,82.81-14.86,17.13-33.43,30.88-53.62,41.1-2.39-7.04-5.19-13.94-7.63-20.97,15.5-9.03,30.35-19.54,42.26-33.08,10.98-12.55,20.68-26.46,26.89-42.02,5.94-13.52,9.78-27.99,10.91-42.73-7.78,2.42-15.56,4.86-23.4,7.09-4.05,1.13-7.98,2.88-12.18,3.28-5.69-1.52-7.01-8.02-8.7-12.83-3.26-7.85-.64-16.44-2.19-24.58-1.1-5.42-1.42-10.98-3.01-16.29-4.15-17.39-13.16-33.5-25.17-46.68-1.59-1.8-3.58-3.42-4.2-5.85-1.74-5.41-4.63-10.54-5.33-16.22-.45-3.23,2.27-5.63,5.07-6.54,9.4-3.09,18.93-5.76,28.43-8.53-12.3-11.83-26.92-21.06-42.19-28.56-20.51-9.8-43.03-15.08-65.72-15.96-6.27.02-12.59-.23-18.81.79-6.43,1.05-12.99,1.3-19.27,3.14,2.3,7.1,4.5,14.24,7.2,21.2,8.19-1.68,16.56-2.03,24.87-2.67,14.63.43,29.49,1.74,43.31,6.86,17.94,48.96,35.12,98.19,52.94,147.18,5.88,16.44,11.46,32.99,17.58,49.35.81,2.59,1.12,5.78-.43,8.15-13.27,15.95-29.91,29.25-48.86,37.83,4.71,14.72,10.66,29.03,15.21,43.8l-.38.8c-9.9,3.64-19.81,7.42-30.19,9.46-7.31,1.96-14.88,2.48-22.33,3.64-29.63,3.06-59.85-1.37-87.64-11.95-35.84-13.67-67.54-38.45-88.57-70.62-19.75-29.94-30.36-66.22-28.46-102.12,46.35-13.61,92.64-27.47,138.95-41.24,4.78-1.74,10.41.72,13,4.96,9.08,17.23,3.26,40.4-12.55,51.66-9.69,6.99-22.26,10.27-34.06,7.93-13.65-2.3-26.12-11.13-32.69-23.33-12.71,4.01-25.48,7.83-38.31,11.43-4.08,1.33-8.29,2.29-12.2,4.12,2.06,28.63,12.2,56.68,28.93,80.02,21.85,30.18,54.59,51.75,90.27,61.87,27.38,7.57,56.77,8.22,84.3,1.04,1.25-.38,2.47-.85,3.7-1.33-5.46-14.35-10.13-29-15.15-43.51,19.03-4.85,36.57-15.19,50.58-28.9,1.35-1.52,3.8-3.18,2.58-5.5-14.54-41.48-29.26-82.89-43.86-124.35-7.55,1.97-14.82,4.91-22.42,6.68,6.24,18.38,12.6,36.72,19.09,55,1.4,4.57,3.97,9.26,2.65,14.16-1.02,4.66-4.5,8.67-9.04,10.2-9.15,3.16-18.39,6.31-27.99,7.81-7.28.51-14.34-1.96-21.24-3.95.74-6.86,1.72-13.69,2.29-20.56,10.46,3.38,22.71,4.99,32.47-1.22-7.38-20.39-14.13-41.01-21.55-61.38-2-7.17,2.79-14.97,9.7-17.22,9.69-3.21,19.62-5.71,29.18-9.29-4.37-11-7.74-22.37-11.77-33.49-1.18-.98-2.83-1.09-4.24-1.52-20.49-3.91-42.02-2.06-61.49,5.45-7.24-19.86-14.28-39.79-20.95-59.84ZM429.46,262.11c-.15.28-.45.85-.59,1.13,3.81,3.07,7.75,6.46,12.7,7.44,6.88,1.84,14.8.41,20.06-4.57,4.55-3.85,6.68-9.87,6.42-15.73-12.94,3.66-25.73,7.82-38.59,11.73Z"/>
  <path class="st1" d="M359.4,186.97c18.91-30.49,47.77-54.62,80.88-68.31,2.46,6.49,5.04,12.97,6.85,19.68-17.99,7.81-34.33,19.26-48.13,33.17-20.36,20.97-34.21,47.91-40.21,76.47-7.85,1.9-15.4,4.84-23.27,6.7,3.01-23.91,11.3-47.16,23.88-67.71Z"/>
  <path class="st1" d="M386.12,239.75c9.25-35.4,36.13-64.69,68.73-80.45,2.14,6.73,4.6,13.35,6.9,20.02-21.37,11.4-39.27,29.92-48.96,52.2-8.83,2.95-17.81,5.37-26.67,8.23Z"/>
  <path class="st1" d="M650.55,195.21c6.82-2.12,13.74-3.86,20.52-6.11,8.31,11.3,13.95,24.35,18.69,37.49,2.95,8.94,5.79,18.02,6.95,27.4-6.95,1.97-13.82,4.31-20.83,6.02-3.94-23.03-12.82-45.09-25.33-64.8Z"/>
  <path class="st0" d="M429.46,262.11c12.86-3.91,25.65-8.07,38.59-11.73.26,5.86-1.87,11.88-6.42,15.73-5.26,4.98-13.18,6.41-20.06,4.57-4.95-.98-8.89-4.37-12.7-7.44.14-.28.44-.85.59-1.13Z"/>
  <path class="st1" d="M382,289.77c7.07-1.76,13.9-4.36,20.96-6.14,1.21,10.42,3.88,20.63,7.64,30.42,12.37,31.06,39.63,55.12,71.14,65.67,15.81,5.13,32.74,7.7,49.32,5.51,1.55.13,3.43-1.02,4.76.12,2.21,6.99,4.83,13.85,7.12,20.83-12.89,1.77-26,2.4-38.94.86-37.78-4.41-74.12-23.87-96.98-54.55-13.91-18.04-23.03-39.99-25.02-62.72Z"/>
  <path class="st1" d="M499.3,342.74c26.19-7.96,52.3-16.15,78.55-23.92,2.3,6.69,4.85,13.31,7,20.05-15.3,4.46-30.45,9.41-45.75,13.88-13.72,4.42-27.63,8.2-41.3,12.75-.03-7.62.93-15.18,1.5-22.76Z"/>
</svg>